<svg id="Instagram" xmlns="http://www.w3.org/2000/svg" viewBox="0 0 115.67 115.67"><defs><style>.cls-1{fill:#51056e;}</style></defs><title>insta</title><rect class="cls-1" x="69.19" y="36.68" width="8.92" height="9.19"/><path class="cls-1" d="M72.64,57.73A14.81,14.81,0,1,1,44.4,51.55H34.61V77a4.19,4.19,0,0,0,4.18,4.18H76.87A4.19,4.19,0,0,0,81.05,77V51.55H71.27A14.7,14.7,0,0,1,72.64,57.73Z"/><path class="cls-1" d="M57.83,66.54a8.8,8.8,0,0,0,6.26-15H51.57a8.8,8.8,0,0,0,6.26,15Z"/><path class="cls-1" d="M57.83,0a57.83,57.83,0,1,0,57.84,57.83A57.83,57.83,0,0,0,57.83,0ZM87.05,77A10.2,10.2,0,0,1,76.87,87.15H38.8A10.2,10.2,0,0,1,28.61,77V38.72A10.2,10.2,0,0,1,38.8,28.53H76.87A10.2,10.2,0,0,1,87.05,38.72Z"/></svg>